<svg viewBox="0 0 48 48" xmlns="http://www.w3.org/2000/svg" xmlns:xlink="http://www.w3.org/1999/xlink" width="48.000000" height="48.000000" fill="none">
	<defs>
		<linearGradient id="paint_linear_2" x1="46" x2="2" y1="24" y2="24" gradientUnits="userSpaceOnUse">
			<stop stop-color="rgb(255,33.101,177.952)" offset="0" stop-opacity="1" />
			<stop stop-color="rgb(255,33,178)" offset="1" stop-opacity="0" />
		</linearGradient>
	</defs>
	<rect id="Users" width="48.000000" height="48.000000" x="0.000000" y="0.000000" fill="rgb(255,255,255)" fill-opacity="0" />
	<path id="Icon" d="M34 42L34 38C34 35.8783 33.1571 33.8434 31.6569 32.3431C30.1566 30.8429 28.1217 30 26 30L10 30C7.87827 30 5.84344 30.8429 4.34315 32.3431C2.84285 33.8434 2 35.8783 2 38L2 42M18 22C13.5817 22 10 18.4183 10 14C10 9.58172 13.5817 6 18 6C22.4183 6 26 9.58172 26 14C26 18.4183 22.4183 22 18 22ZM46 42L46 38C45.9987 36.2275 45.4087 34.5055 44.3227 33.1046C43.2368 31.7037 41.7163 30.7031 40 30.26M32 6.26C33.7208 6.7006 35.2461 7.7014 36.3353 9.10462C37.4245 10.5078 38.0157 12.2337 38.0157 14.01C38.0157 15.7863 37.4245 17.5122 36.3353 18.9154C35.2461 20.3186 33.7208 21.3194 32 21.76" fill-rule="evenodd" stroke="url(#paint_linear_2)" stroke-linecap="round" stroke-linejoin="round" stroke-width="1.5" />
</svg>
